<svg version="1" xmlns="http://www.w3.org/2000/svg" width="1920" height="1061.333" viewBox="0 0 1440.000000 796.000000"><path d="M0 398v398h1440V0H0v398zm1143.8-95.7c.3 2.3 0 2.7-2.2 2.7-2.1 0-2.6-.5-2.6-2.3 0-1.3.3-2.7.7-3.1 1.5-1.4 3.8 0 4.1 2.7zm-54.8 20.4c0 21-.2 23.1-2 26.1-1.1 1.8-3.4 4.1-5.2 5.2-6.3 3.8-21.8 1.8-21.8-2.8 0-2.9.8-3.1 4.8-1.1 4.4 2.3 10.3 2.4 14.3.3 5.2-2.7 5.9-6 5.9-29.4 0-20.3.1-21 2-21s2 .7 2 22.7zm32.8-7c4.1 2.6 5.2 7.1 5.2 21.7 0 12.5.2 13.6 2 14.6 1.1.6 2 1.7 2 2.5 0 2.4-4.7 1.8-6.7-.9l-1.8-2.3-2.6 2c-3 2.1-10.3 3.3-14.4 2.3-1.5-.4-3.8-1.9-5.1-3.3-3.2-3.5-3.4-10.9-.2-14.2 3-3.3 9.4-5.9 16.1-6.7l5.7-.7V327c0-2.3-.8-4.8-2.1-6.4-2.8-3.5-9.7-3.6-16.2-.2-3.8 2.1-4.6 2.2-5.1.9-1.1-2.7-.6-3.4 3.2-5 7.8-3.4 15.3-3.6 20-.6zM1144 334v21h-5v-20c0-19.9 0-20.1 2.3-21 1.2-.5 2.3-.9 2.5-.9.1-.1.2 9.3.2 20.9zm16-18.5v2.4l4.3-1.9c16.1-7.4 30.7 7.7 25.3 26.2-1.9 6.6-7.5 12.3-13.1 13.4-3.9.7-11.9.1-14.7-1.1-1.7-.7-1.8.2-1.8 10.4 0 10.4-.1 11.1-2 11.1-2 0-2-.7-2-30.9 0-30.9.1-31.7 3.3-32 .4-.1.7 1 .7 2.4zm87.2 2.2l-.3 4.8 1.8-2.8c1-1.5 3.7-3.7 6-4.8 3.5-1.7 4.8-1.9 8.1-.9 3.2.8 3.9 1.4 3.5 3-.4 1.6-1.1 1.8-5.2 1.3-5.7-.6-8.9 1.5-12 8.2-1.8 3.8-2.1 6.3-2.1 16.5 0 11.3-.1 12-2 12s-2-.7-2-20.4c0-20.4 0-20.5 2.3-20.9 1.2-.2 2.2-.5 2.2-.6 0 0-.1 2-.3 4.6zm-43 12.9l.3 16.6 2.9 2.5c4 3.4 10.2 2.8 15.4-1.4l3.7-3 .3-15.7c.2-14.8.3-15.6 2.2-15.6 2 0 2 .6 1.8 20.7-.3 18.9-.5 20.8-2 21.1-1.4.3-1.8-.3-1.8-2.7V350l-4 2.6c-4.6 3-12 4.2-16.2 2.5-1.6-.6-3.7-2.5-4.8-4.3-1.8-3-2-5.1-2-20.1 0-15.8.1-16.7 1.9-16.7 1.9 0 2 1 2.3 16.6z"/><path d="M1117.5 334.7c-7.3 1.7-9.8 2.6-12.5 4.9-8.7 7.3 3.4 16.6 13.1 10.1 3.2-2.2 3.4-2.6 3.7-9 .3-7 .3-7.1-4.3-6zm47-14.4l-4 2.3-.3 13.2-.3 13.3 3.5 1.4c12 5 22.6-2.4 22.6-15.7 0-13.3-10.8-20.6-21.5-14.5z"/></svg>