<?xml version="1.0" standalone="no"?>
<!DOCTYPE svg PUBLIC "-//W3C//DTD SVG 20010904//EN"
 "http://www.w3.org/TR/2001/REC-SVG-20010904/DTD/svg10.dtd">
<svg version="1.0" xmlns="http://www.w3.org/2000/svg"
 width="1440.000000pt" height="796.000000pt" viewBox="0 0 1440.000000 796.000000"
 preserveAspectRatio="xMidYMid meet">

<g transform="translate(0.000000,796.000000) scale(0.100000,-0.100000)"
fill="#000000" stroke="none">
<path d="M0 3980 l0 -3980 7200 0 7200 0 0 3980 0 3980 -7200 0 -7200 0 0
-3980z m11438 957 c3 -23 0 -27 -22 -27 -21 0 -26 5 -26 23 0 13 3 27 7 31 15
14 38 0 41 -27z m-548 -204 c0 -210 -2 -231 -20 -261 -11 -18 -34 -41 -52 -52
-63 -38 -218 -18 -218 28 0 29 8 31 48 11 44 -23 103 -24 143 -3 52 27 59 60
59 294 0 203 1 210 20 210 19 0 20 -7 20 -227z m328 70 c41 -26 52 -71 52
-217 0 -125 2 -136 20 -146 11 -6 20 -17 20 -25 0 -24 -47 -18 -67 9 l-18 23
-26 -20 c-30 -21 -103 -33 -144 -23 -15 4 -38 19 -51 33 -32 35 -34 109 -2
142 30 33 94 59 161 67 l57 7 0 37 c0 23 -8 48 -21 64 -28 35 -97 36 -162 2
-38 -21 -46 -22 -51 -9 -11 27 -6 34 32 50 78 34 153 36 200 6z m222 -183 l0
-210 -25 0 -25 0 0 200 c0 199 0 201 23 210 12 5 23 9 25 9 1 1 2 -93 2 -209z
m160 185 l0 -24 43 19 c161 74 307 -77 253 -262 -19 -66 -75 -123 -131 -134
-39 -7 -119 -1 -147 11 -17 7 -18 -2 -18 -104 0 -104 -1 -111 -20 -111 -20 0
-20 7 -20 309 0 309 1 317 33 320 4 1 7 -10 7 -24z m872 -22 l-3 -48 18 28
c10 15 37 37 60 48 35 17 48 19 81 9 32 -8 39 -14 35 -30 -4 -16 -11 -18 -52
-13 -57 6 -89 -15 -120 -82 -18 -38 -21 -63 -21 -165 0 -113 -1 -120 -20 -120
-19 0 -20 7 -20 204 0 204 0 205 23 209 12 2 22 5 22 6 0 0 -1 -20 -3 -46z
m-430 -129 l3 -166 29 -25 c40 -34 102 -28 154 14 l37 30 3 157 c2 148 3 156
22 156 20 0 20 -6 18 -207 -3 -189 -5 -208 -20 -211 -14 -3 -18 3 -18 27 l0
31 -40 -26 c-46 -30 -120 -42 -162 -25 -16 6 -37 25 -48 43 -18 30 -20 51 -20
201 0 158 1 167 19 167 19 0 20 -10 23 -166z"/>
<path d="M11175 4613 c-73 -17 -98 -26 -125 -49 -87 -73 34 -166 131 -101 32
22 34 26 37 90 3 70 3 71 -43 60z"/>
<path d="M11645 4757 l-40 -23 -3 -132 -3 -133 35 -14 c120 -50 226 24 226
157 0 133 -108 206 -215 145z"/>
</g>
</svg>
